<svg id="_7830799_phone_actions_ring_icon" data-name="7830799_phone_actions_ring_icon" xmlns="http://www.w3.org/2000/svg" width="64.377" height="64.346" viewBox="0 0 64.377 64.346">
  <path id="Path_171" data-name="Path 171" d="M46.049,36.649a6.707,6.707,0,0,0-9.484,0l-1.033,1.03A125.263,125.263,0,0,1,20,22.149l1.033-1.033a6.707,6.707,0,0,0,0-9.486L15.342,5.94a6.707,6.707,0,0,0-9.484,0L2.736,9.062a9.416,9.416,0,0,0-1.186,11.8A125.907,125.907,0,0,0,36.807,56.131a9.5,9.5,0,0,0,11.8-1.186l3.125-3.123a6.707,6.707,0,0,0,0-9.484Z" transform="translate(-0.003 6.691)" fill="#fff"/>
  <path id="Path_172" data-name="Path 172" d="M13.183,0a2.683,2.683,0,0,0,0,5.366A28.2,28.2,0,0,1,41.352,33.534a2.683,2.683,0,1,0,5.366,0A33.575,33.575,0,0,0,13.183,0Z" transform="translate(17.66)" fill="#fff"/>
  <path id="Path_173" data-name="Path 173" d="M13.183,9.366A17.459,17.459,0,0,1,30.621,26.8a2.683,2.683,0,1,0,5.366,0A22.83,22.83,0,0,0,13.183,4a2.683,2.683,0,0,0,0,5.366Z" transform="translate(17.66 6.731)" fill="#fff"/>
  <path id="Path_174" data-name="Path 174" d="M13.183,13.366a6.707,6.707,0,0,1,6.707,6.707,2.683,2.683,0,0,0,5.366,0A12.086,12.086,0,0,0,13.183,8a2.683,2.683,0,0,0,0,5.366Z" transform="translate(17.66 13.462)" fill="#fff"/>
</svg>
