<svg id="icons" xmlns="http://www.w3.org/2000/svg" width="57.875" height="43.406" viewBox="0 0 57.875 43.406">
  <path id="email" d="M48.229,3H9.646A9.674,9.674,0,0,0,0,12.646V36.761a9.674,9.674,0,0,0,9.646,9.646H48.229a9.674,9.674,0,0,0,9.646-9.646V12.646A9.674,9.674,0,0,0,48.229,3Zm3.858,13.987L33.037,29.767a8.129,8.129,0,0,1-4.1,1.206,8.129,8.129,0,0,1-4.1-1.206L5.788,16.987a2.551,2.551,0,0,1-.482-3.376,2.551,2.551,0,0,1,3.376-.482L27.732,25.909a2.612,2.612,0,0,0,2.653,0L49.435,13.128a2.372,2.372,0,0,1,3.376.723A2.63,2.63,0,0,1,52.088,16.987Z" transform="translate(0 -3)" fill="#fff"/>
</svg>
